<?xml version="1.0" encoding="UTF-8" standalone="no"?>
<!DOCTYPE svg PUBLIC "-//W3C//DTD SVG 1.1//EN"
 "http://www.w3.org/Graphics/SVG/1.1/DTD/svg11.dtd">
<!-- Generated by graphviz version 12.2.1 (20241206.2353)
 -->
<!-- Title: ClinipulseSequence Pages: 1 -->
<svg width="574pt" height="757pt"
 viewBox="0.00 0.00 574.45 756.95" xmlns="http://www.w3.org/2000/svg" xmlns:xlink="http://www.w3.org/1999/xlink">
<g id="graph0" class="graph" transform="scale(1 1) rotate(0) translate(21.6 735.35)">
<title>ClinipulseSequence</title>
<polygon fill="white" stroke="none" points="-21.6,21.6 -21.6,-735.35 552.85,-735.35 552.85,21.6 -21.6,21.6"/>
<text text-anchor="middle" x="265.62" y="-689.8" font-family="Helvetica,sans-Serif" font-size="21.00">CliniPulse — Upload and Grounded Answer Sequence</text>
<!-- start -->
<g id="node1" class="node">
<title>start</title>
<path fill="#dbeafe" stroke="#334155" d="M331.89,-684C331.89,-684 199.36,-684 199.36,-684 193.36,-684 187.36,-678 187.36,-672 187.36,-672 187.36,-660 187.36,-660 187.36,-654 193.36,-648 199.36,-648 199.36,-648 331.89,-648 331.89,-648 337.89,-648 343.89,-654 343.89,-660 343.89,-660 343.89,-672 343.89,-672 343.89,-678 337.89,-684 331.89,-684"/>
<text text-anchor="middle" x="265.62" y="-662.12" font-family="Helvetica,sans-Serif" font-size="10.00">1 &#160;User uploads a clinical PDF</text>
</g>
<!-- auth -->
<g id="node2" class="node">
<title>auth</title>
<path fill="#f8fafc" stroke="#334155" d="M355.52,-612C355.52,-612 175.73,-612 175.73,-612 169.73,-612 163.73,-606 163.73,-600 163.73,-600 163.73,-588 163.73,-588 163.73,-582 169.73,-576 175.73,-576 175.73,-576 355.52,-576 355.52,-576 361.52,-576 367.52,-582 367.52,-588 367.52,-588 367.52,-600 367.52,-600 367.52,-606 361.52,-612 355.52,-612"/>
<text text-anchor="middle" x="265.62" y="-590.12" font-family="Helvetica,sans-Serif" font-size="10.00">2 &#160;Next.js sends multipart request + JWT</text>
</g>
<!-- start&#45;&gt;auth -->
<g id="edge1" class="edge">
<title>start&#45;&gt;auth</title>
<path fill="none" stroke="#475569" stroke-width="1.3" d="M265.62,-647.7C265.62,-640.49 265.62,-631.93 265.62,-623.82"/>
<polygon fill="#475569" stroke="#475569" stroke-width="1.3" points="269.13,-624.07 265.63,-614.07 262.13,-624.07 269.13,-624.07"/>
</g>
<!-- validate -->
<g id="node3" class="node">
<title>validate</title>
<path fill="#f8fafc" stroke="#334155" d="M402.39,-540C402.39,-540 128.86,-540 128.86,-540 122.86,-540 116.85,-534 116.85,-528 116.85,-528 116.85,-516 116.85,-516 116.85,-510 122.85,-504 128.85,-504 128.85,-504 402.39,-504 402.39,-504 408.39,-504 414.39,-510 414.39,-516 414.39,-516 414.39,-528 414.39,-528 414.39,-534 408.39,-540 402.39,-540"/>
<text text-anchor="middle" x="265.62" y="-518.12" font-family="Helvetica,sans-Serif" font-size="10.00">3 &#160;Spring Security authorizes; API validates PDF and SHA&#45;256</text>
</g>
<!-- auth&#45;&gt;validate -->
<g id="edge2" class="edge">
<title>auth&#45;&gt;validate</title>
<path fill="none" stroke="#475569" stroke-width="1.3" d="M265.62,-575.7C265.62,-568.49 265.62,-559.93 265.62,-551.82"/>
<polygon fill="#475569" stroke="#475569" stroke-width="1.3" points="269.13,-552.07 265.63,-542.07 262.13,-552.07 269.13,-552.07"/>
</g>
<!-- persist -->
<g id="node4" class="node">
<title>persist</title>
<path fill="#f8fafc" stroke="#334155" d="M397.14,-468C397.14,-468 134.11,-468 134.11,-468 128.11,-468 122.1,-462 122.1,-456 122.1,-456 122.1,-444 122.1,-444 122.1,-438 128.1,-432 134.1,-432 134.1,-432 397.14,-432 397.14,-432 403.14,-432 409.14,-438 409.14,-444 409.14,-444 409.14,-456 409.14,-456 409.14,-462 403.14,-468 397.14,-468"/>
<text text-anchor="middle" x="265.62" y="-446.12" font-family="Helvetica,sans-Serif" font-size="10.00">4 &#160;Store PDF in Azure Blob; persist metadata in PostgreSQL</text>
</g>
<!-- validate&#45;&gt;persist -->
<g id="edge3" class="edge">
<title>validate&#45;&gt;persist</title>
<path fill="none" stroke="#475569" stroke-width="1.3" d="M265.62,-503.7C265.62,-496.49 265.62,-487.93 265.62,-479.82"/>
<polygon fill="#475569" stroke="#475569" stroke-width="1.3" points="269.13,-480.07 265.63,-470.07 262.13,-480.07 269.13,-480.07"/>
</g>
<!-- index -->
<g id="node5" class="node">
<title>index</title>
<path fill="#f8fafc" stroke="#334155" d="M405.02,-396C405.02,-396 126.23,-396 126.23,-396 120.23,-396 114.23,-390 114.23,-384 114.23,-384 114.23,-372 114.23,-372 114.23,-366 120.23,-360 126.23,-360 126.23,-360 405.02,-360 405.02,-360 411.02,-360 417.02,-366 417.02,-372 417.02,-372 417.02,-384 417.02,-384 417.02,-390 411.02,-396 405.02,-396"/>
<text text-anchor="middle" x="265.62" y="-374.12" font-family="Helvetica,sans-Serif" font-size="10.00">5 &#160;Extract chunks; create embeddings; write ChromaDB vectors</text>
</g>
<!-- persist&#45;&gt;index -->
<g id="edge4" class="edge">
<title>persist&#45;&gt;index</title>
<path fill="none" stroke="#475569" stroke-width="1.3" d="M265.62,-431.7C265.62,-424.49 265.62,-415.93 265.62,-407.82"/>
<polygon fill="#475569" stroke="#475569" stroke-width="1.3" points="269.13,-408.07 265.63,-398.07 262.13,-408.07 269.13,-408.07"/>
</g>
<!-- ready -->
<g id="node6" class="node">
<title>ready</title>
<path fill="#dcfce7" stroke="#334155" d="M375.02,-324C375.02,-324 156.23,-324 156.23,-324 150.23,-324 144.23,-318 144.23,-312 144.23,-312 144.23,-300 144.23,-300 144.23,-294 150.23,-288 156.23,-288 156.23,-288 375.02,-288 375.02,-288 381.02,-288 387.02,-294 387.02,-300 387.02,-300 387.02,-312 387.02,-312 387.02,-318 381.02,-324 375.02,-324"/>
<text text-anchor="middle" x="265.62" y="-302.12" font-family="Helvetica,sans-Serif" font-size="10.00">6 &#160;Mark document READY and return chunk count</text>
</g>
<!-- index&#45;&gt;ready -->
<g id="edge5" class="edge">
<title>index&#45;&gt;ready</title>
<path fill="none" stroke="#475569" stroke-width="1.3" d="M265.62,-359.7C265.62,-352.49 265.62,-343.93 265.62,-335.82"/>
<polygon fill="#475569" stroke="#475569" stroke-width="1.3" points="269.13,-336.07 265.63,-326.07 262.13,-336.07 269.13,-336.07"/>
</g>
<!-- ask -->
<g id="node7" class="node">
<title>ask</title>
<path fill="#dbeafe" stroke="#334155" d="M340.52,-252C340.52,-252 190.73,-252 190.73,-252 184.73,-252 178.73,-246 178.73,-240 178.73,-240 178.73,-228 178.73,-228 178.73,-222 184.73,-216 190.73,-216 190.73,-216 340.52,-216 340.52,-216 346.52,-216 352.52,-222 352.52,-228 352.52,-228 352.52,-240 352.52,-240 352.52,-246 346.52,-252 340.52,-252"/>
<text text-anchor="middle" x="265.62" y="-230.12" font-family="Helvetica,sans-Serif" font-size="10.00">7 &#160;User submits a clinical question</text>
</g>
<!-- ready&#45;&gt;ask -->
<g id="edge6" class="edge">
<title>ready&#45;&gt;ask</title>
<path fill="none" stroke="#475569" stroke-width="1.3" d="M265.62,-287.7C265.62,-280.49 265.62,-271.93 265.62,-263.82"/>
<polygon fill="#475569" stroke="#475569" stroke-width="1.3" points="269.13,-264.07 265.63,-254.07 262.13,-264.07 269.13,-264.07"/>
</g>
<!-- retrieve -->
<g id="node8" class="node">
<title>retrieve</title>
<path fill="#f8fafc" stroke="#334155" d="M379.89,-180C379.89,-180 151.36,-180 151.36,-180 145.36,-180 139.36,-174 139.36,-168 139.36,-168 139.36,-156 139.36,-156 139.36,-150 145.36,-144 151.36,-144 151.36,-144 379.89,-144 379.89,-144 385.89,-144 391.89,-150 391.89,-156 391.89,-156 391.89,-168 391.89,-168 391.89,-174 385.89,-180 379.89,-180"/>
<text text-anchor="middle" x="265.62" y="-158.12" font-family="Helvetica,sans-Serif" font-size="10.00">8 &#160;Retrieve top&#45;five relevant chunks from ChromaDB</text>
</g>
<!-- ask&#45;&gt;retrieve -->
<g id="edge7" class="edge">
<title>ask&#45;&gt;retrieve</title>
<path fill="none" stroke="#475569" stroke-width="1.3" d="M265.62,-215.7C265.62,-208.49 265.62,-199.93 265.62,-191.82"/>
<polygon fill="#475569" stroke="#475569" stroke-width="1.3" points="269.13,-192.07 265.63,-182.07 262.13,-192.07 269.13,-192.07"/>
</g>
<!-- generate -->
<g id="node9" class="node">
<title>generate</title>
<path fill="#f8fafc" stroke="#334155" d="M379.52,-108C379.52,-108 151.73,-108 151.73,-108 145.73,-108 139.73,-102 139.73,-96 139.73,-96 139.73,-84 139.73,-84 139.73,-78 145.73,-72 151.73,-72 151.73,-72 379.52,-72 379.52,-72 385.52,-72 391.52,-78 391.52,-84 391.52,-84 391.52,-96 391.52,-96 391.52,-102 385.52,-108 379.52,-108"/>
<text text-anchor="middle" x="265.62" y="-86.12" font-family="Helvetica,sans-Serif" font-size="10.00">9 &#160;Send guarded prompt + context to Llama endpoint</text>
</g>
<!-- retrieve&#45;&gt;generate -->
<g id="edge8" class="edge">
<title>retrieve&#45;&gt;generate</title>
<path fill="none" stroke="#475569" stroke-width="1.3" d="M265.62,-143.7C265.62,-136.49 265.62,-127.93 265.62,-119.82"/>
<polygon fill="#475569" stroke="#475569" stroke-width="1.3" points="269.13,-120.07 265.63,-110.07 262.13,-120.07 269.13,-120.07"/>
</g>
<!-- answer -->
<g id="node10" class="node">
<title>answer</title>
<path fill="#dcfce7" stroke="#334155" d="M372.39,-36C372.39,-36 158.86,-36 158.86,-36 152.86,-36 146.86,-30 146.86,-24 146.86,-24 146.86,-12 146.86,-12 146.86,-6 152.86,0 158.86,0 158.86,0 372.39,0 372.39,0 378.39,0 384.39,-6 384.39,-12 384.39,-12 384.39,-24 384.39,-24 384.39,-30 378.39,-36 372.39,-36"/>
<text text-anchor="middle" x="265.62" y="-14.12" font-family="Helvetica,sans-Serif" font-size="10.00">10 &#160;Return grounded answer + relevant filenames</text>
</g>
<!-- generate&#45;&gt;answer -->
<g id="edge9" class="edge">
<title>generate&#45;&gt;answer</title>
<path fill="none" stroke="#475569" stroke-width="1.3" d="M265.62,-71.7C265.62,-64.49 265.62,-55.93 265.62,-47.82"/>
<polygon fill="#475569" stroke="#475569" stroke-width="1.3" points="269.13,-48.07 265.63,-38.07 262.13,-48.07 269.13,-48.07"/>
</g>
</g>
</svg>
