<?xml version="1.0" encoding="UTF-8" standalone="no"?>
<!DOCTYPE svg PUBLIC "-//W3C//DTD SVG 1.1//EN"
 "http://www.w3.org/Graphics/SVG/1.1/DTD/svg11.dtd">
<!-- Generated by graphviz version 12.2.1 (20241206.2353)
 -->
<!-- Title: ClinipulseArchitecture Pages: 1 -->
<svg width="1463pt" height="487pt"
 viewBox="0.00 0.00 1463.42 486.92" xmlns="http://www.w3.org/2000/svg" xmlns:xlink="http://www.w3.org/1999/xlink">
<g id="graph0" class="graph" transform="scale(1 1) rotate(0) translate(25.2 461.72)">
<title>ClinipulseArchitecture</title>
<polygon fill="white" stroke="none" points="-25.2,25.2 -25.2,-461.72 1438.22,-461.72 1438.22,25.2 -25.2,25.2"/>
<text text-anchor="middle" x="706.51" y="-411.62" font-family="Helvetica,sans-Serif" font-size="22.00">CliniPulse AI — System Architecture</text>
<g id="clust1" class="cluster">
<title>cluster_api</title>
<path fill="#eff6ff" stroke="#93c5fd" d="M478.59,-92.64C478.59,-92.64 905.18,-92.64 905.18,-92.64 911.18,-92.64 917.18,-98.64 917.18,-104.64 917.18,-104.64 917.18,-249.64 917.18,-249.64 917.18,-255.64 911.18,-261.64 905.18,-261.64 905.18,-261.64 478.59,-261.64 478.59,-261.64 472.59,-261.64 466.59,-255.64 466.59,-249.64 466.59,-249.64 466.59,-104.64 466.59,-104.64 466.59,-98.64 472.59,-92.64 478.59,-92.64"/>
<text text-anchor="middle" x="691.89" y="-236.74" font-family="Helvetica,sans-Serif" font-size="22.00">Java 21 / Spring Boot API</text>
</g>
<!-- user -->
<g id="node1" class="node">
<title>user</title>
<path fill="#e0f2fe" stroke="#334155" stroke-width="1.4" d="M109.17,-193.64C109.17,-193.64 12,-193.64 12,-193.64 6,-193.64 0,-187.64 0,-181.64 0,-181.64 0,-169.64 0,-169.64 0,-163.64 6,-157.64 12,-157.64 12,-157.64 109.17,-157.64 109.17,-157.64 115.17,-157.64 121.17,-163.64 121.17,-169.64 121.17,-169.64 121.17,-181.64 121.17,-181.64 121.17,-187.64 115.17,-193.64 109.17,-193.64"/>
<text text-anchor="middle" x="60.59" y="-171.19" font-family="Helvetica,sans-Serif" font-size="11.00">Clinician / Reviewer</text>
</g>
<!-- web -->
<g id="node2" class="node">
<title>web</title>
<path fill="#dbeafe" stroke="#334155" stroke-width="1.4" d="M352.84,-196.28C352.84,-196.28 220.42,-196.28 220.42,-196.28 214.42,-196.28 208.42,-190.28 208.42,-184.28 208.42,-184.28 208.42,-167 208.42,-167 208.42,-161 214.42,-155 220.42,-155 220.42,-155 352.84,-155 352.84,-155 358.84,-155 364.84,-161 364.84,-167 364.84,-167 364.84,-184.28 364.84,-184.28 364.84,-190.28 358.84,-196.28 352.84,-196.28"/>
<text text-anchor="middle" x="286.63" y="-177.19" font-family="Helvetica,sans-Serif" font-size="11.00">Clinical Workspace</text>
<text text-anchor="middle" x="286.63" y="-165.19" font-family="Helvetica,sans-Serif" font-size="11.00">Next.js · React · TypeScript</text>
</g>
<!-- user&#45;&gt;web -->
<g id="edge1" class="edge">
<title>user&#45;&gt;web</title>
<path fill="none" stroke="#475569" stroke-width="1.4" d="M121.62,-175.64C145.08,-175.64 172.45,-175.64 198.03,-175.64"/>
<polygon fill="#475569" stroke="#475569" stroke-width="1.4" points="197.99,-178.44 205.99,-175.64 197.99,-172.84 197.99,-178.44"/>
<text text-anchor="middle" x="164.8" y="-176.84" font-family="Helvetica,sans-Serif" font-size="9.00">HTTPS</text>
</g>
<!-- security -->
<g id="node3" class="node">
<title>security</title>
<path fill="#fef3c7" stroke="#334155" stroke-width="1.4" d="M609.26,-196.28C609.26,-196.28 486.59,-196.28 486.59,-196.28 480.59,-196.28 474.59,-190.28 474.59,-184.28 474.59,-184.28 474.59,-167 474.59,-167 474.59,-161 480.59,-155 486.59,-155 486.59,-155 609.26,-155 609.26,-155 615.26,-155 621.26,-161 621.26,-167 621.26,-167 621.26,-184.28 621.26,-184.28 621.26,-190.28 615.26,-196.28 609.26,-196.28"/>
<text text-anchor="middle" x="547.93" y="-177.19" font-family="Helvetica,sans-Serif" font-size="11.00">Spring Security</text>
<text text-anchor="middle" x="547.93" y="-165.19" font-family="Helvetica,sans-Serif" font-size="11.00">OAuth 2.0 JWT + scopes</text>
</g>
<!-- web&#45;&gt;security -->
<g id="edge2" class="edge">
<title>web&#45;&gt;security</title>
<path fill="none" stroke="#475569" stroke-width="1.4" d="M365.08,-175.64C396.45,-175.64 432.72,-175.64 464.58,-175.64"/>
<polygon fill="#475569" stroke="#475569" stroke-width="1.4" points="464.2,-178.44 472.2,-175.64 464.2,-172.84 464.2,-178.44"/>
<text text-anchor="middle" x="419.72" y="-176.84" font-family="Helvetica,sans-Serif" font-size="9.00">REST + JWT</text>
</g>
<!-- documents -->
<g id="node4" class="node">
<title>documents</title>
<path fill="#ffffff" stroke="#334155" stroke-width="1.4" d="M893.43,-223.28C893.43,-223.28 776.01,-223.28 776.01,-223.28 770.01,-223.28 764.01,-217.28 764.01,-211.28 764.01,-211.28 764.01,-194 764.01,-194 764.01,-188 770.01,-182 776.01,-182 776.01,-182 893.43,-182 893.43,-182 899.43,-182 905.43,-188 905.43,-194 905.43,-194 905.43,-211.28 905.43,-211.28 905.43,-217.28 899.43,-223.28 893.43,-223.28"/>
<text text-anchor="middle" x="834.72" y="-204.19" font-family="Helvetica,sans-Serif" font-size="11.00">Document Service</text>
<text text-anchor="middle" x="834.72" y="-192.19" font-family="Helvetica,sans-Serif" font-size="11.00">validate · hash · lifecycle</text>
</g>
<!-- security&#45;&gt;documents -->
<g id="edge3" class="edge">
<title>security&#45;&gt;documents</title>
<path fill="none" stroke="#475569" stroke-width="1.4" d="M621.53,-182.52C661.87,-186.35 712.15,-191.11 753.64,-195.05"/>
<polygon fill="#475569" stroke="#475569" stroke-width="1.4" points="753.37,-197.83 761.6,-195.8 753.9,-192.26 753.37,-197.83"/>
<text text-anchor="middle" x="690.76" y="-193.55" font-family="Helvetica,sans-Serif" font-size="9.00">authorized upload</text>
</g>
<!-- rag -->
<g id="node5" class="node">
<title>rag</title>
<path fill="#ffffff" stroke="#334155" stroke-width="1.4" d="M897.18,-142.28C897.18,-142.28 772.26,-142.28 772.26,-142.28 766.26,-142.28 760.26,-136.28 760.26,-130.28 760.26,-130.28 760.26,-113 760.26,-113 760.26,-107 766.26,-101 772.26,-101 772.26,-101 897.18,-101 897.18,-101 903.18,-101 909.18,-107 909.18,-113 909.18,-113 909.18,-130.28 909.18,-130.28 909.18,-136.28 903.18,-142.28 897.18,-142.28"/>
<text text-anchor="middle" x="834.72" y="-123.19" font-family="Helvetica,sans-Serif" font-size="11.00">Spring AI RAG Service</text>
<text text-anchor="middle" x="834.72" y="-111.19" font-family="Helvetica,sans-Serif" font-size="11.00">retrieve · ground · answer</text>
</g>
<!-- security&#45;&gt;rag -->
<g id="edge4" class="edge">
<title>security&#45;&gt;rag</title>
<path fill="none" stroke="#475569" stroke-width="1.4" d="M621.53,-161.87C660.66,-154.45 709.12,-145.26 749.86,-137.54"/>
<polygon fill="#475569" stroke="#475569" stroke-width="1.4" points="750.34,-140.3 757.68,-136.06 749.3,-134.8 750.34,-140.3"/>
<text text-anchor="middle" x="690.76" y="-156.26" font-family="Helvetica,sans-Serif" font-size="9.00">authorized question</text>
</g>
<!-- postgres -->
<g id="node6" class="node">
<title>postgres</title>
<path fill="#dcfce7" stroke="#334155" stroke-width="1.4" d="M1182.48,-400.86C1182.48,-403.71 1152.63,-406.02 1115.89,-406.02 1079.15,-406.02 1049.31,-403.71 1049.31,-400.86 1049.31,-400.86 1049.31,-354.42 1049.31,-354.42 1049.31,-351.57 1079.15,-349.26 1115.89,-349.26 1152.63,-349.26 1182.48,-351.57 1182.48,-354.42 1182.48,-354.42 1182.48,-400.86 1182.48,-400.86"/>
<path fill="none" stroke="#334155" stroke-width="1.4" d="M1182.48,-400.86C1182.48,-398.01 1152.63,-395.7 1115.89,-395.7 1079.15,-395.7 1049.31,-398.01 1049.31,-400.86"/>
<text text-anchor="middle" x="1115.89" y="-379.19" font-family="Helvetica,sans-Serif" font-size="11.00">PostgreSQL</text>
<text text-anchor="middle" x="1115.89" y="-367.19" font-family="Helvetica,sans-Serif" font-size="11.00">metadata + audit state</text>
</g>
<!-- documents&#45;&gt;postgres -->
<g id="edge5" class="edge">
<title>documents&#45;&gt;postgres</title>
<path fill="none" stroke="#475569" stroke-width="1.4" d="M867.94,-223.58C888.08,-236.62 914.58,-253.7 938.18,-268.64 980.85,-295.65 991.69,-302.14 1034.68,-328.64 1043.02,-333.78 1051.85,-339.2 1060.49,-344.49"/>
<polygon fill="#475569" stroke="#475569" stroke-width="1.4" points="1058.95,-346.83 1067.23,-348.61 1061.87,-342.05 1058.95,-346.83"/>
<text text-anchor="middle" x="971.93" y="-311.4" font-family="Helvetica,sans-Serif" font-size="9.00">JPA / Flyway</text>
</g>
<!-- blob -->
<g id="node7" class="node">
<title>blob</title>
<path fill="#cffafe" stroke="#334155" stroke-width="1.4" d="M1176.1,-303.86C1176.1,-306.71 1149.11,-309.02 1115.89,-309.02 1082.67,-309.02 1055.68,-306.71 1055.68,-303.86 1055.68,-303.86 1055.68,-257.42 1055.68,-257.42 1055.68,-254.57 1082.67,-252.26 1115.89,-252.26 1149.11,-252.26 1176.1,-254.57 1176.1,-257.42 1176.1,-257.42 1176.1,-303.86 1176.1,-303.86"/>
<path fill="none" stroke="#334155" stroke-width="1.4" d="M1176.1,-303.86C1176.1,-301.01 1149.11,-298.7 1115.89,-298.7 1082.67,-298.7 1055.68,-301.01 1055.68,-303.86"/>
<text text-anchor="middle" x="1115.89" y="-282.19" font-family="Helvetica,sans-Serif" font-size="11.00">Azure Blob Storage</text>
<text text-anchor="middle" x="1115.89" y="-270.19" font-family="Helvetica,sans-Serif" font-size="11.00">source PDFs</text>
</g>
<!-- documents&#45;&gt;blob -->
<g id="edge6" class="edge">
<title>documents&#45;&gt;blob</title>
<path fill="none" stroke="#475569" stroke-width="1.4" d="M905.81,-222.22C948.51,-234.15 1002.87,-249.34 1045.45,-261.24"/>
<polygon fill="#475569" stroke="#475569" stroke-width="1.4" points="1044.68,-263.93 1053.14,-263.39 1046.19,-258.54 1044.68,-263.93"/>
<text text-anchor="middle" x="971.93" y="-249.83" font-family="Helvetica,sans-Serif" font-size="9.00">store PDF</text>
</g>
<!-- embedding -->
<g id="node9" class="node">
<title>embedding</title>
<path fill="#f3e8ff" stroke="#334155" stroke-width="1.4" d="M1162.98,-212.28C1162.98,-212.28 1068.81,-212.28 1068.81,-212.28 1062.81,-212.28 1056.81,-206.28 1056.81,-200.28 1056.81,-200.28 1056.81,-183 1056.81,-183 1056.81,-177 1062.81,-171 1068.81,-171 1068.81,-171 1162.98,-171 1162.98,-171 1168.98,-171 1174.98,-177 1174.98,-183 1174.98,-183 1174.98,-200.28 1174.98,-200.28 1174.98,-206.28 1168.98,-212.28 1162.98,-212.28"/>
<text text-anchor="middle" x="1115.89" y="-193.19" font-family="Helvetica,sans-Serif" font-size="11.00">Embedding Model</text>
<text text-anchor="middle" x="1115.89" y="-181.19" font-family="Helvetica,sans-Serif" font-size="11.00">OpenAI&#45;compatible</text>
</g>
<!-- documents&#45;&gt;embedding -->
<g id="edge7" class="edge">
<title>documents&#45;&gt;embedding</title>
<path fill="none" stroke="#475569" stroke-width="1.4" d="M905.81,-199.88C948.87,-198.18 1003.78,-196.02 1046.53,-194.33"/>
<polygon fill="#475569" stroke="#475569" stroke-width="1.4" points="1046.56,-197.13 1054.44,-194.02 1046.34,-191.54 1046.56,-197.13"/>
<text text-anchor="middle" x="971.93" y="-199.65" font-family="Helvetica,sans-Serif" font-size="9.00">chunk text</text>
</g>
<!-- rag&#45;&gt;web -->
<g id="edge11" class="edge">
<title>rag&#45;&gt;web</title>
<path fill="none" stroke="#475569" stroke-width="1.4" d="M759.8,-116.54C685.34,-112.74 567.38,-110.42 466.59,-124.89 429.49,-130.22 389.26,-141.14 356.35,-151.5"/>
<polygon fill="#475569" stroke="#475569" stroke-width="1.4" points="355.61,-148.79 348.85,-153.89 357.32,-154.13 355.61,-148.79"/>
<text text-anchor="middle" x="547.93" y="-126.09" font-family="Helvetica,sans-Serif" font-size="9.00">answer + sources</text>
</g>
<!-- chroma -->
<g id="node8" class="node">
<title>chroma</title>
<path fill="#ede9fe" stroke="#334155" stroke-width="1.4" d="M1413.02,-177.86C1413.02,-180.71 1389.06,-183.02 1359.56,-183.02 1330.06,-183.02 1306.1,-180.71 1306.1,-177.86 1306.1,-177.86 1306.1,-131.42 1306.1,-131.42 1306.1,-128.57 1330.06,-126.26 1359.56,-126.26 1389.06,-126.26 1413.02,-128.57 1413.02,-131.42 1413.02,-131.42 1413.02,-177.86 1413.02,-177.86"/>
<path fill="none" stroke="#334155" stroke-width="1.4" d="M1413.02,-177.86C1413.02,-175.01 1389.06,-172.7 1359.56,-172.7 1330.06,-172.7 1306.1,-175.01 1306.1,-177.86"/>
<text text-anchor="middle" x="1359.56" y="-156.19" font-family="Helvetica,sans-Serif" font-size="11.00">ChromaDB</text>
<text text-anchor="middle" x="1359.56" y="-144.19" font-family="Helvetica,sans-Serif" font-size="11.00">chunks + vectors</text>
</g>
<!-- rag&#45;&gt;chroma -->
<g id="edge9" class="edge">
<title>rag&#45;&gt;chroma</title>
<path fill="none" stroke="#475569" stroke-width="1.4" d="M909.47,-124.88C982.53,-128.26 1097.6,-134 1197.1,-140.89 1229.75,-143.15 1266.08,-146.2 1295.99,-148.85"/>
<polygon fill="#475569" stroke="#475569" stroke-width="1.4" points="1295.54,-151.62 1303.76,-149.54 1296.04,-146.04 1295.54,-151.62"/>
<text text-anchor="middle" x="1115.89" y="-142.09" font-family="Helvetica,sans-Serif" font-size="9.00">similarity search</text>
</g>
<!-- llm -->
<g id="node10" class="node">
<title>llm</title>
<path fill="#fae8ff" stroke="#334155" stroke-width="1.4" d="M1185.1,-41.28C1185.1,-41.28 1046.68,-41.28 1046.68,-41.28 1040.68,-41.28 1034.68,-35.28 1034.68,-29.28 1034.68,-29.28 1034.68,-12 1034.68,-12 1034.68,-6 1040.68,0 1046.68,0 1046.68,0 1185.1,0 1185.1,0 1191.1,0 1197.1,-6 1197.1,-12 1197.1,-12 1197.1,-29.28 1197.1,-29.28 1197.1,-35.28 1191.1,-41.28 1185.1,-41.28"/>
<text text-anchor="middle" x="1115.89" y="-22.19" font-family="Helvetica,sans-Serif" font-size="11.00">Llama Chat Model</text>
<text text-anchor="middle" x="1115.89" y="-10.19" font-family="Helvetica,sans-Serif" font-size="11.00">OpenAI&#45;compatible endpoint</text>
</g>
<!-- rag&#45;&gt;llm -->
<g id="edge10" class="edge">
<title>rag&#45;&gt;llm</title>
<path fill="none" stroke="#475569" stroke-width="1.4" d="M887.39,-100.51C903.58,-94.04 921.57,-87.02 938.18,-80.89 971.81,-68.48 1009.36,-55.55 1041.16,-44.86"/>
<polygon fill="#475569" stroke="#475569" stroke-width="1.4" points="1041.7,-47.64 1048.4,-42.44 1039.92,-42.33 1041.7,-47.64"/>
<text text-anchor="middle" x="971.93" y="-82.09" font-family="Helvetica,sans-Serif" font-size="9.00">prompt + context</text>
</g>
<!-- embedding&#45;&gt;chroma -->
<g id="edge8" class="edge">
<title>embedding&#45;&gt;chroma</title>
<path fill="none" stroke="#475569" stroke-width="1.4" d="M1175.39,-182.68C1211.94,-177.09 1258.96,-169.89 1296.21,-164.19"/>
<polygon fill="#475569" stroke="#475569" stroke-width="1.4" points="1296.37,-166.99 1303.85,-163.02 1295.52,-161.46 1296.37,-166.99"/>
<text text-anchor="middle" x="1251.6" y="-175.45" font-family="Helvetica,sans-Serif" font-size="9.00">write vectors</text>
</g>
</g>
</svg>
